<mxfile host="app.diagrams.net" agent="Mozilla/5.0 (Windows NT 10.0; Win64; x64) AppleWebKit/537.36 (KHTML, like Gecko) Chrome/131.0.0.0 Safari/537.36" version="26.0.4">
  <diagram name="Page-1" id="UfrURPjn2rDaY21AdKnx">
    <mxGraphModel dx="1050" dy="522" grid="1" gridSize="10" guides="1" tooltips="1" connect="1" arrows="1" fold="1" page="1" pageScale="1" pageWidth="850" pageHeight="1100" math="0" shadow="0">
      <root>
        <mxCell id="0" />
        <mxCell id="1" parent="0" />
        <mxCell id="h_oLDIUVcqau2drX_-d2-4" value="" style="group" vertex="1" connectable="0" parent="1">
          <mxGeometry x="260" y="110" width="230" height="230" as="geometry" />
        </mxCell>
        <mxCell id="h_oLDIUVcqau2drX_-d2-1" value="" style="whiteSpace=wrap;html=1;aspect=fixed;fillColor=#d5e8d4;strokeColor=#82b366;gradientColor=light-dark(#60b43c, #EDEDED);" vertex="1" parent="h_oLDIUVcqau2drX_-d2-4">
          <mxGeometry width="230" height="230" as="geometry" />
        </mxCell>
        <mxCell id="h_oLDIUVcqau2drX_-d2-2" value="&lt;b&gt;Application Server&lt;/b&gt;" style="text;html=1;align=center;verticalAlign=middle;whiteSpace=wrap;rounded=0;" vertex="1" parent="h_oLDIUVcqau2drX_-d2-4">
          <mxGeometry x="50" width="120" height="30" as="geometry" />
        </mxCell>
        <mxCell id="h_oLDIUVcqau2drX_-d2-3" value="&lt;b&gt;Backend Nodejs&lt;/b&gt;" style="ellipse;whiteSpace=wrap;html=1;aspect=fixed;fillColor=#dae8fc;strokeColor=#6c8ebf;gradientColor=light-dark(#549c90, #ededed);" vertex="1" parent="h_oLDIUVcqau2drX_-d2-4">
          <mxGeometry x="60" y="60" width="110" height="110" as="geometry" />
        </mxCell>
      </root>
    </mxGraphModel>
  </diagram>
</mxfile>
